<?xml version="1.0" encoding="UTF-8"?>
<svg width="96px" height="16px" viewBox="0 0 96 16" version="1.1" xmlns="http://www.w3.org/2000/svg" xmlns:xlink="http://www.w3.org/1999/xlink">
    <!-- Generator: sketchtool 50.2 (55047) - http://www.bohemiancoding.com/sketch -->
    <title>B45355A4-441C-494F-B67A-921397C023D9</title>
    <desc>Created with sketchtool.</desc>
    <defs></defs>
    <g id="Page-1" stroke="none" stroke-width="1" fill="none" fill-rule="evenodd">
        <g id="ppcasino-home" transform="translate(-218.000000, -798.000000)" fill="#d31e25">
            <g id="3" transform="translate(170.000000, 696.000000)">
                <g id="logo-rate" transform="translate(21.000000, 37.000000)">
                    <g id="rate" transform="translate(27.000000, 65.000000)">
                        <polygon id="Star" points="88 12.6175467 83.0557281 15.2169043 84 9.71137658 80 5.81234022 85.527864 5.00909456 88 0 90.472136 5.00909456 96 5.81234022 92 9.71137658 92.9442719 15.2169043"></polygon>
                        <polygon id="Star" points="68 12.6175467 63.0557281 15.2169043 64 9.71137658 60 5.81234022 65.527864 5.00909456 68 0 70.472136 5.00909456 76 5.81234022 72 9.71137658 72.9442719 15.2169043"></polygon>
                        <polygon id="Star" points="48 12.6175467 43.0557281 15.2169043 44 9.71137658 40 5.81234022 45.527864 5.00909456 48 0 50.472136 5.00909456 56 5.81234022 52 9.71137658 52.9442719 15.2169043"></polygon>
                        <polygon id="Star" points="28 12.6175467 23.0557281 15.2169043 24 9.71137658 20 5.81234022 25.527864 5.00909456 28 0 30.472136 5.00909456 36 5.81234022 32 9.71137658 32.9442719 15.2169043"></polygon>
                        <polygon id="Star" points="8 12.6175467 3.05572809 15.2169043 4 9.71137658 4.26880753e-14 5.81234022 5.52786405 5.00909456 8 0 10.472136 5.00909456 16 5.81234022 12 9.71137658 12.9442719 15.2169043"></polygon>
                    </g>
                </g>
            </g>
        </g>
    </g>
</svg>