<?xml version="1.0" encoding="UTF-8"?>
<svg width="96px" height="16px" viewBox="0 0 96 16" version="1.1" xmlns="http://www.w3.org/2000/svg" xmlns:xlink="http://www.w3.org/1999/xlink">
    <!-- Generator: sketchtool 50.2 (55047) - http://www.bohemiancoding.com/sketch -->
    <g id="Page-1" stroke="none" stroke-width="1" fill="none" fill-rule="evenodd">
        <g id="ppcasino-home" transform="translate(-218.000000, -650.000000)" fill="#d31e25" fill-rule="nonzero">
            <g id="2" transform="translate(170.000000, 548.000000)">
                <g id="logo-rate" transform="translate(21.000000, 37.000000)">
                    <g id="rate" transform="translate(27.000000, 65.000000)">
                        <path d="M88,11.487771 L91.6161409,13.3888887 L90.9255194,9.36225668 L93.8510389,6.51058003 L89.8080704,5.92310233 L88,2.25955146 L86.1919296,5.92310233 L82.1489611,6.51058003 L85.0744806,9.36225668 L84.3838591,13.3888887 L88,11.487771 Z M88,12.6175467 L83.0557281,15.2169043 L84,9.71137658 L80,5.81234022 L85.527864,5.00909456 L88,0 L90.472136,5.00909456 L96,5.81234022 L92,9.71137658 L92.9442719,15.2169043 L88,12.6175467 Z" id="Star"></path>
                        <path d="M68,11.487771 L71.6161409,13.3888887 L70.9255194,9.36225668 L73.8510389,6.51058003 L69.8080704,5.92310233 L68,2.25955146 L66.1919296,5.92310233 L62.1489611,6.51058003 L65.0744806,9.36225668 L64.3838591,13.3888887 L68,11.487771 Z M68,12.6175467 L63.0557281,15.2169043 L64,9.71137658 L60,5.81234022 L65.527864,5.00909456 L68,0 L70.472136,5.00909456 L76,5.81234022 L72,9.71137658 L72.9442719,15.2169043 L68,12.6175467 Z" id="Star"></path>
                        <path d="M48,11.487771 L51.6161409,13.3888887 L50.9255194,9.36225668 L53.8510389,6.51058003 L49.8080704,5.92310233 L48,2.25955146 L46.1919296,5.92310233 L42.1489611,6.51058003 L45.0744806,9.36225668 L44.3838591,13.3888887 L48,11.487771 Z M48,12.6175467 L43.0557281,15.2169043 L44,9.71137658 L40,5.81234022 L45.527864,5.00909456 L48,0 L50.472136,5.00909456 L56,5.81234022 L52,9.71137658 L52.9442719,15.2169043 L48,12.6175467 Z" id="Star"></path>
                        <path d="M24.3838591,13.3888887 L28,11.487771 L31.6161409,13.3888887 L30.9255194,9.36225668 L33.8510389,6.51058003 L29.8080704,5.92310233 L28,2.25955146 L26.1919296,5.92310233 L22.1489611,6.51058003 L25.0744806,9.36225668 L24.3838591,13.3888887 Z M28,12.6175467 L23.0557281,15.2169043 L24,9.71137658 L20,5.81234022 L25.527864,5.00909456 L28,0 L30.472136,5.00909456 L36,5.81234022 L32,9.71137658 L32.9442719,15.2169043 L28,12.6175467 Z" id="Star"></path>
                        <path d="M4.38385912,13.3888887 L8,11.487771 L11.6161409,13.3888887 L10.9255194,9.36225668 L13.8510389,6.51058003 L9.80807044,5.92310233 L8,2.25955146 L6.19192956,5.92310233 L2.14896114,6.51058003 L5.07448057,9.36225668 L4.38385912,13.3888887 Z M8,12.6175467 L3.05572809,15.2169043 L4,9.71137658 L4.30766534e-14,5.81234022 L5.52786405,5.00909456 L8,0 L10.472136,5.00909456 L16,5.81234022 L12,9.71137658 L12.9442719,15.2169043 L8,12.6175467 Z" id="Star"></path>
                    </g>
                </g>
            </g>
        </g>
    </g>
</svg>